<svg width="40" height="40" viewBox="0 0 40 40" fill="none" xmlns="http://www.w3.org/2000/svg">
  <path 
    d="M17.9999 7.764V34.48C17.9993 35.3089 17.7062 36.1111 17.1722 36.7451C16.6382 37.3791 15.8976 37.8043 15.0808 37.9458C14.2641 38.0873 13.4236 37.936 12.7074 37.5186C11.9912 37.1012 11.4453 36.4444 11.1659 35.664L6.87193 23.364M31.9999 22C33.5912 22 35.1174 21.3679 36.2426 20.2426C37.3678 19.1174 37.9999 17.5913 37.9999 16C37.9999 14.4087 37.3678 12.8826 36.2426 11.7574C35.1174 10.6321 33.5912 10 31.9999 10V22ZM6.87193 23.366C5.17437 22.6442 3.7783 21.3581 2.91999 19.7253C2.06168 18.0925 1.79385 16.2134 2.16181 14.4058C2.52976 12.5982 3.51092 10.9733 4.93924 9.806C6.36755 8.63869 8.1553 8.0007 9.99993 8H13.6639C21.8639 8 28.9139 5.532 31.9999 2V30C28.9139 26.468 21.8659 24 13.6639 24H9.99993C8.9252 24.0016 7.86124 23.7859 6.87193 23.366Z" 
    stroke="#4640DE" 
    stroke-width="3" 
    stroke-linecap="round" 
    stroke-linejoin="round"
  />
</svg>